<svg class="thumb" width="1000" height="1000" viewBox="0,0,600,600" xmlns="http://www.w3.org/2000/svg" xmlns:inkscape="http://www.inkscape.org/namespaces/inkscape" xmlns:sodipodi="http://sodipodi.sourceforge.net/DTD/sodipodi-0.dtd" xmlns:xlink="http://www.w3.org/1999/xlink" xmlns:ns1="http://www.inkscape.org/namespaces/inkscape" xmlns:sketch="http://www.bohemiancoding.com/sketch/ns">
  <defs></defs>
  <g transform="matrix(0.6036,0,0,0.6036,-53.9255,212.746)">
    <g transform="matrix(-1.9855,0.0347,-0.0347,-1.9855,333.8796,267.2824)">
      <svg width="77.00400000000002" height="53.7" viewBox="11.428999999999988,23.959999999999997,77.00400000000002,53.7">
        <defs>
          <linearGradient x1="0" y1="0.5" x2="1" y2="0.5" id="linearGradientSkh776q1w4">
            <stop offset="0%" stop-color="#e5d80e"></stop>
            <stop offset="100%" stop-color="#e5d80e"></stop>
          </linearGradient>
        </defs>
        <g></g>
        <g></g>
        <g></g>
        <g></g>
        <g>
          <path fill-rule="evenodd" clip-rule="evenodd" d="M73.232,28.96c-5.631,0-10.194,4.567-10.194,10.197   c0,8.74-4.368,13.108-13.11,13.108c-8.737,0-13.111-4.369-13.111-13.108c0-5.63-4.563-10.197-10.194-10.197   s-10.194,4.567-10.194,10.197c0,5.631,4.563,10.198,10.194,10.198c8.742,0,13.111,4.369,13.111,13.111   c0,5.631,4.563,10.194,10.195,10.194c5.63,0,10.2-4.563,10.2-10.194c0-8.742,4.368-13.111,13.104-13.111   c5.637,0,10.2-4.567,10.2-10.198C83.433,33.527,78.869,28.96,73.232,28.96z" fill="url('#linearGradientSkh776q1w4')" style="" stroke="none"></path>
        </g>
      </svg>
    </g>
    <g transform="matrix(1.9858,0,0,1.9858,180.0632,115.3752)">
      <svg width="77.00400000000002" height="53.7" viewBox="11.428999999999988,23.959999999999997,77.00400000000002,53.7">
        <defs>
          <linearGradient x1="0" y1="0.5" x2="1" y2="0.5" id="linearGradientSkh776q1wa">
            <stop offset="0%" stop-color="#e5d80e"></stop>
            <stop offset="100%" stop-color="#e5d80e"></stop>
          </linearGradient>
        </defs>
        <g></g>
        <g></g>
        <g></g>
        <g></g>
        <g>
          <path fill-rule="evenodd" clip-rule="evenodd" d="M73.232,28.96c-5.631,0-10.194,4.567-10.194,10.197   c0,8.74-4.368,13.108-13.11,13.108c-8.737,0-13.111-4.369-13.111-13.108c0-5.63-4.563-10.197-10.194-10.197   s-10.194,4.567-10.194,10.197c0,5.631,4.563,10.198,10.194,10.198c8.742,0,13.111,4.369,13.111,13.111   c0,5.631,4.563,10.194,10.195,10.194c5.63,0,10.2-4.563,10.2-10.194c0-8.742,4.368-13.111,13.104-13.111   c5.637,0,10.2-4.567,10.2-10.198C83.433,33.527,78.869,28.96,73.232,28.96z" fill="url('#linearGradientSkh776q1wa')" style="" stroke="none"></path>
        </g>
      </svg>
    </g>
    <g transform="matrix(0.4467,1.9349,-1.9349,0.4467,216.5954,13.6667)">
      <svg width="77.00400000000002" height="53.7" viewBox="11.428999999999988,23.959999999999997,77.00400000000002,53.7">
        <defs>
          <linearGradient x1="0" y1="0.5" x2="1" y2="0.5" id="linearGradientSkh776q1wg">
            <stop offset="0%" stop-color="#e6de6e"></stop>
            <stop offset="100%" stop-color="#e6de6e"></stop>
          </linearGradient>
        </defs>
        <g></g>
        <g></g>
        <g></g>
        <g></g>
        <g>
          <path fill-rule="evenodd" clip-rule="evenodd" d="M73.232,28.96c-5.631,0-10.194,4.567-10.194,10.197   c0,8.74-4.368,13.108-13.11,13.108c-8.737,0-13.111-4.369-13.111-13.108c0-5.63-4.563-10.197-10.194-10.197   s-10.194,4.567-10.194,10.197c0,5.631,4.563,10.198,10.194,10.198c8.742,0,13.111,4.369,13.111,13.111   c0,5.631,4.563,10.194,10.195,10.194c5.63,0,10.2-4.563,10.2-10.194c0-8.742,4.368-13.111,13.104-13.111   c5.637,0,10.2-4.567,10.2-10.198C83.433,33.527,78.869,28.96,73.232,28.96z" fill="url('#linearGradientSkh776q1wg')" style="" stroke="none"></path>
        </g>
      </svg>
    </g>
    <g transform="matrix(0,1.9858,-1.9858,0,238.1428,114.5452)">
      <svg width="77.00400000000002" height="53.7" viewBox="11.428999999999988,23.959999999999997,77.00400000000002,53.7">
        <defs>
          <linearGradient x1="0" y1="0.5" x2="1" y2="0.5" id="linearGradientSkh776q1wm">
            <stop offset="0%" stop-color="#ede576"></stop>
            <stop offset="100%" stop-color="#ede576"></stop>
          </linearGradient>
        </defs>
        <g></g>
        <g></g>
        <g></g>
        <g></g>
        <g>
          <path fill-rule="evenodd" clip-rule="evenodd" d="M73.232,28.96c-5.631,0-10.194,4.567-10.194,10.197   c0,8.74-4.368,13.108-13.11,13.108c-8.737,0-13.111-4.369-13.111-13.108c0-5.63-4.563-10.197-10.194-10.197   s-10.194,4.567-10.194,10.197c0,5.631,4.563,10.198,10.194,10.198c8.742,0,13.111,4.369,13.111,13.111   c0,5.631,4.563,10.194,10.195,10.194c5.63,0,10.2-4.563,10.2-10.194c0-8.742,4.368-13.111,13.104-13.111   c5.637,0,10.2-4.567,10.2-10.198C83.433,33.527,78.869,28.96,73.232,28.96z" fill="url('#linearGradientSkh776q1wm')" style="" stroke="none"></path>
        </g>
      </svg>
    </g>
    <g transform="matrix(1.2613,0,0,1.2613,345.7364,0.8266)">
      <svg width="548.486328125" height="196" style="overflow: visible;">
        <defs>
          <linearGradient x1="0" y1="0.5" x2="1" y2="0.5" id="linearGradientSkh776q1wy">
            <stop offset="0%" stop-color="#1761a0"></stop>
            <stop offset="100%" stop-color="#1761a0"></stop>
          </linearGradient>
        </defs>
        <g transform="matrix(1,0,0,1,0,102)">
          <path d="M 27.88-27.88L 27.88-39.6L 49.71-39.6L 49.71-2.98Q 40.43 0.98  29.98 0.98L 29.98 0.98Q 17.53 0.98  10.82-8.5Q 4.1-17.97  4.1-35.79L 4.1-35.79Q 4.1-52.98  11.79-62.7Q 19.48-72.41  33.3-72.41L 33.3-72.41Q 41.85-72.41  49.61-68.02L 49.61-68.02L 45.41-57.18Q 39.36-60.69  34.08-60.69L 34.08-60.69Q 26.51-60.69  22.09-53.93Q 17.68-47.17  17.68-35.5L 17.68-35.5Q 17.68-23.49  20.87-17.09Q 24.07-10.69  30.18-10.69L 30.18-10.69Q 33.4-10.69  36.72-11.52L 36.72-11.52L 36.72-27.88L 27.88-27.88ZM 100.09687500000001-27.29L 100.09687500000001-27.29Q 100.09687500000001-13.92  94.43687500000001-6.47Q 88.76687500000001 0.98  78.90687500000001 0.98L 78.90687500000001 0.98Q 72.65687500000001 0.98  67.86687500000002-2.44Q 63.08687500000001-5.86  60.49687500000002-12.28Q 57.906875000000014-18.7  57.906875000000014-27.29L 57.906875000000014-27.29Q 57.906875000000014-40.53  63.52687500000002-47.97Q 69.13687500000002-55.42  79.09687500000001-55.42L 79.09687500000001-55.42Q 88.71687500000002-55.42  94.40687500000001-47.83Q 100.09687500000001-40.23  100.09687500000001-27.29ZM 71.18687500000001-27.29L 71.18687500000001-27.29Q 71.18687500000001-18.8  73.04687500000001-14.45Q 74.90687500000001-10.11  79.00687500000001-10.11L 79.00687500000001-10.11Q 86.81687500000001-10.11  86.81687500000001-27.29L 86.81687500000001-27.29Q 86.81687500000001-35.84  84.93687500000001-40.06Q 83.05687500000002-44.29  79.00687500000001-44.29L 79.00687500000001-44.29Q 74.90687500000001-44.29  73.04687500000001-40.06Q 71.18687500000001-35.84  71.18687500000001-27.29ZM 122.22093750000003-75.98L 122.22093750000003 0L 109.23093750000002 0L 109.23093750000002-75.98L 122.22093750000003-75.98ZM 147.407890625 0.98L 147.407890625 0.98Q 139.887890625 0.98  135.547890625-6.45Q 131.197890625-13.87  131.197890625-27.1L 131.197890625-27.1Q 131.197890625-40.38  135.447890625-47.9Q 139.697890625-55.42  147.16789062499998-55.42L 147.16789062499998-55.42Q 150.877890625-55.42  153.587890625-53.59Q 156.297890625-51.76  158.597890625-47.41L 158.597890625-47.41L 159.377890625-47.41Q 158.787890625-54.83  158.787890625-57.81L 158.787890625-57.81L 158.787890625-75.98L 171.777890625-75.98L 171.777890625 0L 162.107890625 0L 159.907890625-7.08L 159.467890625-7.08Q 155.317890625 0.98  147.407890625 0.98ZM 151.607890625-10.01L 151.607890625-10.01Q 155.227890625-10.01  156.887890625-13.31Q 158.547890625-16.6  158.687890625-25.29L 158.687890625-25.29L 158.687890625-27Q 158.687890625-36.47  157.00789062500002-40.33Q 155.317890625-44.19  151.467890625-44.19L 151.467890625-44.19Q 147.847890625-44.19  146.217890625-39.77Q 144.577890625-35.35  144.577890625-26.9L 144.577890625-26.9Q 144.577890625-18.46  146.237890625-14.23Q 147.897890625-10.01  151.607890625-10.01ZM 202.787265625 0.98L 202.787265625 0.98Q 192.577265625 0.98  186.697265625-6.27Q 180.807265625-13.53  180.807265625-26.81L 180.807265625-26.81Q 180.807265625-40.28  186.137265625-47.85Q 191.457265625-55.42  200.977265625-55.42L 200.977265625-55.42Q 209.86726562500002-55.42  214.987265625-48.95Q 220.11726562500002-42.48  220.11726562500002-30.81L 220.11726562500002-30.81L 220.11726562500002-23.88L 193.997265625-23.88Q 194.137265625-16.6  196.977265625-13.06Q 199.807265625-9.52  204.787265625-9.52L 204.787265625-9.52Q 211.137265625-9.52  217.77726562499998-13.48L 217.77726562499998-13.48L 217.77726562499998-2.78Q 211.52726562499998 0.98  202.787265625 0.98ZM 200.877265625-45.41L 200.877265625-45.41Q 198.097265625-45.41  196.287265625-42.46Q 194.487265625-39.5  194.187265625-33.3L 194.187265625-33.3L 207.377265625-33.3Q 207.27726562499998-39.26  205.567265625-42.33Q 203.857265625-45.41  200.877265625-45.41ZM 268.893359375 0L 255.813359375 0L 255.813359375-32.42Q 255.813359375-38.33  254.393359375-41.36Q 252.983359375-44.38  249.803359375-44.38L 249.803359375-44.38Q 245.603359375-44.38  243.653359375-40.21Q 241.703359375-36.04  241.703359375-26.12L 241.703359375-26.12L 241.703359375 0L 228.713359375 0L 228.713359375-54.39L 239.013359375-54.39L 240.573359375-47.41L 241.403359375-47.41Q 243.163359375-51.17  246.433359375-53.3Q 249.703359375-55.42  254.103359375-55.42L 254.103359375-55.42Q 261.523359375-55.42  265.213359375-50.34Q 268.893359375-45.26  268.893359375-35.5L 268.893359375-35.5L 268.893359375 0ZM 304.88398437499995 0L 304.88398437499995-71.39L 323.09398437499993-71.39Q 334.22398437499993-71.39  339.3039843749999-67.07Q 344.38398437499995-62.74  344.38398437499995-53.32L 344.38398437499995-53.32Q 344.38398437499995-47.12  341.70398437499995-42.94Q 339.01398437499995-38.77  334.37398437499996-37.89L 334.37398437499996-37.89L 334.37398437499996-37.4Q 340.43398437499997-35.89  343.113984375-31.74Q 345.8039843749999-27.59  345.8039843749999-20.7L 345.8039843749999-20.7Q 345.8039843749999-10.99  340.6039843749999-5.49Q 335.40398437499994 0  326.363984375 0L 326.363984375 0L 304.88398437499995 0ZM 317.38398437499995-59.91L 317.38398437499995-42.68L 323.4839843749999-42.68Q 327.68398437499997-42.68  329.39398437499995-44.92Q 331.1039843749999-47.17  331.1039843749999-51.61L 331.1039843749999-51.61Q 331.1039843749999-56.05  329.15398437499994-57.98Q 327.19398437499996-59.91  322.99398437499997-59.91L 322.99398437499997-59.91L 317.38398437499995-59.91ZM 323.87398437499996-31.59L 317.38398437499995-31.59L 317.38398437499995-11.62L 324.07398437499995-11.62Q 328.22398437499993-11.62  330.25398437499996-14.16Q 332.27398437499994-16.7  332.27398437499994-22.02L 332.27398437499994-22.02Q 332.27398437499994-31.59  323.87398437499996-31.59L 323.87398437499996-31.59ZM 377.977578125-55.42L 377.977578125-55.42Q 380.367578125-55.42  382.667578125-54.69L 382.667578125-54.69L 381.147578125-42.09Q 379.787578125-42.58  377.587578125-42.58L 377.587578125-42.58Q 372.847578125-42.58  370.307578125-38.84Q 367.777578125-35.11  367.777578125-27.98L 367.777578125-27.98L 367.777578125 0L 354.787578125 0L 354.787578125-54.39L 365.477578125-54.39L 366.947578125-45.9L 367.387578125-45.9Q 369.527578125-51.03  372.067578125-53.22Q 374.607578125-55.42  377.977578125-55.42ZM 401.558984375-54.39L 401.558984375 0L 388.578984375 0L 388.578984375-54.39L 401.558984375-54.39ZM 388.038984375-68.6L 388.038984375-68.6Q 388.038984375-71.83  389.918984375-73.71Q 391.798984375-75.59  395.168984375-75.59L 395.168984375-75.59Q 398.338984375-75.59  400.248984375-73.71Q 402.148984375-71.83  402.148984375-68.6L 402.148984375-68.6Q 402.148984375-65.28  400.198984375-63.45Q 398.238984375-61.62  395.168984375-61.62L 395.168984375-61.62Q 391.938984375-61.62  389.988984375-63.45Q 388.038984375-65.28  388.038984375-68.6ZM 426.99773437499994 0.98L 426.99773437499994 0.98Q 419.47773437499995 0.98  415.1377343749999-6.45Q 410.78773437499996-13.87  410.78773437499996-27.1L 410.78773437499996-27.1Q 410.78773437499996-40.38  415.03773437499996-47.9Q 419.28773437499996-55.42  426.7577343749999-55.42L 426.7577343749999-55.42Q 430.46773437499996-55.42  433.17773437499994-53.59Q 435.8877343749999-51.76  438.18773437499993-47.41L 438.18773437499993-47.41L 438.96773437499996-47.41Q 438.37773437499993-54.83  438.37773437499993-57.81L 438.37773437499993-57.81L 438.37773437499993-75.98L 451.36773437499994-75.98L 451.36773437499994 0L 441.6977343749999 0L 439.49773437499994-7.08L 439.05773437499994-7.08Q 434.90773437499996 0.98  426.99773437499994 0.98ZM 431.1977343749999-10.01L 431.1977343749999-10.01Q 434.81773437499993-10.01  436.47773437499995-13.31Q 438.1377343749999-16.6  438.27773437499997-25.29L 438.27773437499997-25.29L 438.27773437499997-27Q 438.27773437499997-36.47  436.59773437499996-40.33Q 434.90773437499996-44.19  431.05773437499994-44.19L 431.05773437499994-44.19Q 427.43773437499993-44.19  425.80773437499994-39.77Q 424.16773437499995-35.35  424.16773437499995-26.9L 424.16773437499995-26.9Q 424.16773437499995-18.46  425.8277343749999-14.23Q 427.48773437499995-10.01  431.1977343749999-10.01ZM 485.987109375-54.3L 501.467109375-54.3L 501.467109375-46.68L 494.967109375-45.21Q 496.87710937500003-41.8  496.87710937500003-36.62L 496.87710937500003-36.62Q 496.87710937500003-27.98  492.187109375-23.1Q 487.497109375-18.21  479.097109375-18.21L 479.097109375-18.21Q 476.657109375-18.21  475.487109375-18.6L 475.487109375-18.6Q 474.557109375-17.77  473.727109375-16.75Q 472.897109375-15.72  472.897109375-14.21L 472.897109375-14.21Q 472.897109375-10.79  478.807109375-10.79L 478.807109375-10.79L 486.667109375-10.79Q 493.607109375-10.79  497.337109375-7.06Q 501.077109375-3.32  501.077109375 4.2L 501.077109375 4.2Q 501.077109375 13.67  494.727109375 18.85Q 488.377109375 24.02  476.467109375 24.02L 476.467109375 24.02Q 467.427109375 24.02  462.547109375 20.09Q 457.667109375 16.16  457.667109375 8.89L 457.667109375 8.89Q 457.667109375 4.35  460.447109375 0.9Q 463.237109375-2.54  468.167109375-4.1L 468.167109375-4.1Q 465.677109375-5.08  464.087109375-7.13Q 462.497109375-9.18  462.497109375-11.91L 462.497109375-11.91Q 462.497109375-13.57  462.987109375-14.92Q 463.477109375-16.26  464.377109375-17.46Q 465.287109375-18.65  468.067109375-21L 468.067109375-21Q 464.697109375-23.05  462.747109375-27.29Q 460.787109375-31.54  460.787109375-36.72L 460.787109375-36.72Q 460.787109375-45.65  465.477109375-50.54Q 470.167109375-55.42  478.907109375-55.42L 478.907109375-55.42Q 480.567109375-55.42  482.717109375-55.05Q 484.867109375-54.69  485.987109375-54.3L 485.987109375-54.3ZM 469.487109375 7.91L 469.487109375 7.91Q 469.487109375 11.13  471.507109375 12.87Q 473.537109375 14.6  477.297109375 14.6L 477.297109375 14.6Q 483.207109375 14.6  486.157109375 12.35Q 489.107109375 10.11  489.107109375 6.2L 489.107109375 6.2Q 489.107109375 3.13  487.527109375 1.86Q 485.937109375 0.59  481.587109375 0.59L 481.587109375 0.59L 475.297109375 0.59Q 472.657109375 0.59  471.067109375 2.56Q 469.487109375 4.54  469.487109375 7.91ZM 473.487109375-36.62L 473.487109375-36.62Q 473.487109375-27  478.907109375-27L 478.907109375-27Q 484.177109375-27  484.177109375-36.72L 484.177109375-36.72Q 484.177109375-46.68  478.907109375-46.68L 478.907109375-46.68Q 473.487109375-46.68  473.487109375-36.62ZM 528.080234375 0.98L 528.080234375 0.98Q 517.870234375 0.98  511.990234375-6.27Q 506.100234375-13.53  506.100234375-26.81L 506.100234375-26.81Q 506.100234375-40.28  511.430234375-47.85Q 516.750234375-55.42  526.270234375-55.42L 526.270234375-55.42Q 535.160234375-55.42  540.280234375-48.95Q 545.410234375-42.48  545.410234375-30.81L 545.410234375-30.81L 545.410234375-23.88L 519.290234375-23.88Q 519.430234375-16.6  522.270234375-13.06Q 525.100234375-9.52  530.080234375-9.52L 530.080234375-9.52Q 536.430234375-9.52  543.070234375-13.48L 543.070234375-13.48L 543.070234375-2.78Q 536.820234375 0.98  528.080234375 0.98ZM 526.170234375-45.41L 526.170234375-45.41Q 523.390234375-45.41  521.580234375-42.46Q 519.780234375-39.5  519.480234375-33.3L 519.480234375-33.3L 532.670234375-33.3Q 532.570234375-39.26  530.860234375-42.33Q 529.150234375-45.41  526.170234375-45.41Z" data-textpath="Golden Bridge" data-text-anchor="middle" data-font-size="100" data-letterspacing="0" data-side="left" data-offset="0.5" data-dx="0" data-dy="0" data-xmlspace="preserve" data-href="" data-font="Open Sans Condensed" data-font-src="/Content/clientfonts/opensanscondensed-bold.woff" data-font-scale="contain" transform="translate(0,0)" data-x="0" data-y="0" fill="url('#linearGradientSkh776q1wy')"></path>
        </g>
      </svg>
    </g>
    <g transform="matrix(0.779,0,0,0.779,393.1921,157.7645)">
      <svg width="788.525390625" height="196" style="overflow: visible;">
        <defs>
          <linearGradient x1="0" y1="0.5" x2="1" y2="0.5" id="linearGradientSkh776q1w11">
            <stop offset="0%" stop-color="#4c96d7"></stop>
            <stop offset="100%" stop-color="#4c96d7"></stop>
          </linearGradient>
        </defs>
        <g transform="matrix(1,0,0,1,0,102)">
          <path d="M 19.48-28.61L 19.48 0L 6.3 0L 6.3-71.39L 38.28-71.39L 38.28-59.91L 19.48-59.91L 19.48-40.09L 37.01-40.09L 37.01-28.61L 19.48-28.61ZM 62.107968750000026 0L 49.60796875000002 0L 49.60796875000002-71.39L 62.107968750000026-71.39L 62.107968750000026 0ZM 127.19843749999998-71.39L 127.19843749999998 0L 110.98843749999999 0L 88.91843749999998-51.71L 88.27843749999998-51.71Q 89.4984375-45.8  89.4984375-39.01L 89.4984375-39.01L 89.4984375 0L 77.19843749999998 0L 77.19843749999998-71.39L 93.50843749999999-71.39L 115.37843749999999-20.21L 115.91843749999998-20.21Q 114.98843749999999-25.34  114.98843749999999-32.42L 114.98843749999999-32.42L 114.98843749999999-71.39L 127.19843749999998-71.39ZM 186.91609374999996 0L 173.58609374999997 0L 169.48609374999998-18.02L 150.87609374999997-18.02L 146.77609374999997 0L 133.49609374999997 0L 151.17609374999998-71.68L 169.18609374999997-71.68L 186.91609374999996 0ZM 153.51609374999998-29.79L 166.99609374999997-29.79L 163.18609374999997-46.39Q 162.84609374999997-47.9  161.64609374999998-53.98Q 160.44609374999996-60.06  160.20609374999998-62.11L 160.20609374999998-62.11Q 159.56609374999996-57.91  158.59609374999997-52.86Q 157.61609374999998-47.8  153.51609374999998-29.79L 153.51609374999998-29.79ZM 243.2140624999999-71.39L 243.2140624999999 0L 227.00406249999992 0L 204.93406249999992-51.71L 204.2940624999999-51.71Q 205.5140624999999-45.8  205.5140624999999-39.01L 205.5140624999999-39.01L 205.5140624999999 0L 193.21406249999993 0L 193.21406249999993-71.39L 209.5240624999999-71.39L 231.3940624999999-20.21L 231.93406249999992-20.21Q 231.00406249999992-25.34  231.00406249999992-32.42L 231.00406249999992-32.42L 231.00406249999992-71.39L 243.2140624999999-71.39ZM 279.4917187499999-60.79L 279.4917187499999-60.79Q 273.78171874999987-60.79  270.4817187499999-54.1Q 267.1917187499999-47.41  267.1917187499999-35.5L 267.1917187499999-35.5Q 267.1917187499999-10.69  280.1317187499999-10.69L 280.1317187499999-10.69Q 285.79171874999986-10.69  291.9917187499999-14.31L 291.9917187499999-14.31L 291.9917187499999-2.49Q 286.7717187499999 0.98  278.6117187499999 0.98L 278.6117187499999 0.98Q 266.5517187499999 0.98  260.0817187499999-8.62Q 253.61171874999988-18.21  253.61171874999988-35.6L 253.61171874999988-35.6Q 253.61171874999988-52.98  260.28171874999987-62.7Q 266.9417187499999-72.41  278.8117187499999-72.41L 278.8117187499999-72.41Q 282.7117187499999-72.41  286.3017187499999-71.34Q 289.8917187499999-70.26  293.9917187499999-67.58L 293.9917187499999-67.58L 289.6017187499999-56.79Q 287.4017187499999-58.3  284.91171874999986-59.55Q 282.42171874999985-60.79  279.4917187499999-60.79ZM 316.9907812499999 0L 304.4907812499999 0L 304.4907812499999-71.39L 316.9907812499999-71.39L 316.9907812499999 0ZM 379.20124999999985 0L 365.8712499999998 0L 361.77124999999984-18.02L 343.1612499999998-18.02L 339.0612499999998 0L 325.78124999999983 0L 343.46124999999984-71.68L 361.4712499999998-71.68L 379.20124999999985 0ZM 345.8012499999998-29.79L 359.28124999999983-29.79L 355.4712499999998-46.39Q 355.13124999999985-47.9  353.9312499999998-53.98Q 352.7312499999998-60.06  352.4912499999998-62.11L 352.4912499999998-62.11Q 351.8512499999998-57.91  350.88124999999985-52.86Q 349.90124999999983-47.8  345.8012499999998-29.79L 345.8012499999998-29.79ZM 417.18921874999995 0L 385.49921874999995 0L 385.49921874999995-71.39L 398.7792187499999-71.39L 398.7792187499999-11.62L 417.18921874999995-11.62L 417.18921874999995 0ZM 482.91179687500005-19.68L 482.91179687500005-19.68Q 482.91179687500005-9.67  477.85179687500005-4.35Q 472.80179687500004 0.98  463.28179687500005 0.98L 463.28179687500005 0.98Q 453.95179687500007 0.98  447.41179687500005-2.69L 447.41179687500005-2.69L 447.41179687500005-15.82Q 455.42179687500004-10.6  462.11179687500004-10.6L 462.11179687500004-10.6Q 465.92179687500004-10.6  467.84179687500006-12.7Q 469.77179687500006-14.79  469.77179687500006-18.41L 469.77179687500006-18.41Q 469.77179687500006-21.97  467.48179687500004-24.93Q 465.18179687500003-27.88  459.91179687500005-31.49L 459.91179687500005-31.49Q 455.3217968750001-34.67  452.95179687500007-37.57Q 450.58179687500007-40.48  449.29179687500005-44.09Q 448.0017968750001-47.71  448.0017968750001-52.49L 448.0017968750001-52.49Q 448.0017968750001-61.67  453.10179687500005-67.04Q 458.20179687500007-72.41  466.80179687500004-72.41L 466.80179687500004-72.41Q 475.0017968750001-72.41  482.5717968750001-67.82L 482.5717968750001-67.82L 478.17179687500004-57.18Q 475.83179687500007-58.54  473.2617968750001-59.62Q 470.70179687500007-60.69  467.77179687500006-60.69L 467.77179687500006-60.69Q 464.55179687500004-60.69  462.8217968750001-58.57Q 461.08179687500007-56.45  461.08179687500007-52.78L 461.08179687500007-52.78Q 461.08179687500007-49.17  463.16179687500005-46.48Q 465.23179687500004-43.8  470.41179687500005-40.38L 470.41179687500005-40.38Q 477.39179687500007-35.69  480.15179687500006-30.81Q 482.91179687500005-25.93  482.91179687500005-19.68ZM 523.880390625-11.62L 523.880390625 0L 491.70039062500007 0L 491.70039062500007-71.39L 523.880390625-71.39L 523.880390625-59.91L 504.98039062500004-59.91L 504.98039062500004-42.92L 522.510390625-42.92L 522.510390625-31.4L 504.98039062500004-31.4L 504.98039062500004-11.62L 523.880390625-11.62ZM 552.2985156250002-27.78L 547.5585156250002-27.78L 547.5585156250002 0L 534.2785156250001 0L 534.2785156250001-71.39L 551.6585156250001-71.39Q 562.6985156250001-71.39  567.9485156250001-66.16Q 573.1885156250002-60.94  573.1885156250002-50.2L 573.1885156250002-50.2Q 573.1885156250002-36.67  564.0585156250002-31.3L 564.0585156250002-31.3L 577.7785156250001 0L 563.5785156250001 0L 552.2985156250002-27.78ZM 547.5585156250002-59.91L 547.5585156250002-39.21L 550.9785156250001-39.21Q 555.6685156250002-39.21  557.7185156250001-41.87Q 559.7685156250001-44.53  559.7685156250001-49.8L 559.7685156250001-49.8Q 559.7685156250001-55.27  557.5885156250001-57.59Q 555.4185156250002-59.91  550.8785156250001-59.91L 550.8785156250001-59.91L 547.5585156250002-59.91ZM 605.7585156250001-27.78L 614.9885156250001-71.39L 628.3685156250001-71.39L 611.5685156250001 0L 594.6785156250002 0L 577.9785156250001-71.39L 591.3585156250001-71.39L 600.6885156250002-27.78Q 601.9485156250001-22.22  603.1785156250002-11.82L 603.1785156250002-11.82Q 604.1985156250001-20.65  605.7585156250001-27.78L 605.7585156250001-27.78ZM 649.5591406250002 0L 637.0591406250002 0L 637.0591406250002-71.39L 649.5591406250002-71.39L 649.5591406250002 0ZM 688.3296093750001-60.79L 688.3296093750001-60.79Q 682.6196093750001-60.79  679.3196093750001-54.1Q 676.0296093750001-47.41  676.0296093750001-35.5L 676.0296093750001-35.5Q 676.0296093750001-10.69  688.9696093750001-10.69L 688.9696093750001-10.69Q 694.6296093750001-10.69  700.8296093750001-14.31L 700.8296093750001-14.31L 700.8296093750001-2.49Q 695.6096093750001 0.98  687.4496093750001 0.98L 687.4496093750001 0.98Q 675.3896093750001 0.98  668.9196093750002-8.62Q 662.4496093750001-18.21  662.4496093750001-35.6L 662.4496093750001-35.6Q 662.4496093750001-52.98  669.1196093750001-62.7Q 675.7796093750001-72.41  687.6496093750001-72.41L 687.6496093750001-72.41Q 691.5496093750002-72.41  695.1396093750001-71.34Q 698.7296093750001-70.26  702.8296093750001-67.58L 702.8296093750001-67.58L 698.4396093750001-56.79Q 696.2396093750001-58.3  693.7496093750001-59.55Q 691.2596093750001-60.79  688.3296093750001-60.79ZM 743.1186718750002-11.62L 743.1186718750002 0L 710.9386718750002 0L 710.9386718750002-71.39L 743.1186718750002-71.39L 743.1186718750002-59.91L 724.2186718750003-59.91L 724.2186718750003-42.92L 741.7486718750002-42.92L 741.7486718750002-31.4L 724.2186718750003-31.4L 724.2186718750003-11.62L 743.1186718750002-11.62ZM 786.0367968750003-19.68L 786.0367968750003-19.68Q 786.0367968750003-9.67  780.9767968750002-4.35Q 775.9267968750003 0.98  766.4067968750003 0.98L 766.4067968750003 0.98Q 757.0767968750002 0.98  750.5367968750003-2.69L 750.5367968750003-2.69L 750.5367968750003-15.82Q 758.5467968750003-10.6  765.2367968750002-10.6L 765.2367968750002-10.6Q 769.0467968750003-10.6  770.9667968750002-12.7Q 772.8967968750002-14.79  772.8967968750002-18.41L 772.8967968750002-18.41Q 772.8967968750002-21.97  770.6067968750002-24.93Q 768.3067968750003-27.88  763.0367968750003-31.49L 763.0367968750003-31.49Q 758.4467968750002-34.67  756.0767968750002-37.57Q 753.7067968750002-40.48  752.4167968750003-44.09Q 751.1267968750002-47.71  751.1267968750002-52.49L 751.1267968750002-52.49Q 751.1267968750002-61.67  756.2267968750002-67.04Q 761.3267968750002-72.41  769.9267968750003-72.41L 769.9267968750003-72.41Q 778.1267968750002-72.41  785.6967968750002-67.82L 785.6967968750002-67.82L 781.2967968750003-57.18Q 778.9567968750002-58.54  776.3867968750002-59.62Q 773.8267968750002-60.69  770.8967968750002-60.69L 770.8967968750002-60.69Q 767.6767968750003-60.69  765.9467968750002-58.57Q 764.2067968750002-56.45  764.2067968750002-52.78L 764.2067968750002-52.78Q 764.2067968750002-49.17  766.2867968750003-46.48Q 768.3567968750002-43.8  773.5367968750003-40.38L 773.5367968750003-40.38Q 780.5167968750002-35.69  783.2767968750002-30.81Q 786.0367968750003-25.93  786.0367968750003-19.68Z" data-textpath="FINANCIAL SERVICES" data-text-anchor="middle" data-font-size="100" data-letterspacing="0" data-side="left" data-offset="0.5" data-dx="0" data-dy="0" data-xmlspace="preserve" data-href="" data-font="Open Sans Condensed" data-font-src="/Content/clientfonts/opensanscondensed-bold.woff" data-font-scale="contain" transform="translate(0,0)" data-x="0" data-y="0" fill="url('#linearGradientSkh776q1w11')"></path>
        </g>
      </svg>
    </g>
  </g>
</svg>